<svg xmlns="http://www.w3.org/2000/svg" xmlns:xlink="http://www.w3.org/1999/xlink" width="186" zoomAndPan="magnify" viewBox="0 0 139.5 36.000001" height="48" preserveAspectRatio="xMidYMid meet" version="1.0"><defs><g/><clipPath id="a0c81f47d7"><rect x="0" width="111" y="0" height="21"/></clipPath></defs><g transform="matrix(1, 0, 0, 1, 14, 7)"><g clip-path="url(#a0c81f47d7)"><g fill="#000000" fill-opacity="1"><g transform="translate(0.577454, 16.24476)"><g><path d="M 26.765625 0 L 21.1875 0 L 21.1875 -8.484375 L 16.203125 0 L 12.046875 0 L 7.0625 -8.484375 L 7.0625 0 L 1.484375 0 L 1.484375 -13.296875 L 8.109375 -13.296875 L 14.125 -3.796875 L 20.140625 -13.296875 L 26.765625 -13.296875 Z M 26.765625 0 "/></g></g></g><g fill="#000000" fill-opacity="1"><g transform="translate(28.832103, 16.24476)"><g><path d="M 22.34375 0 L 16.6875 0 L 15.4375 -2.171875 L 7.046875 -2.171875 L 5.796875 0 L 0.140625 0 L 8.65625 -13.296875 L 13.828125 -13.296875 Z M 13.546875 -5.46875 L 11.25 -9.5 L 8.921875 -5.46875 Z M 13.546875 -5.46875 "/></g></g></g><g fill="#000000" fill-opacity="1"><g transform="translate(50.013575, 16.24476)"><g><path d="M 8.78125 0.28125 C 6.988281 0.28125 5.539062 0.0859375 4.4375 -0.296875 C 3.34375 -0.679688 2.503906 -1.210938 1.921875 -1.890625 C 1.347656 -2.566406 0.960938 -3.347656 0.765625 -4.234375 L 6.6875 -4.234375 C 7.125 -3.597656 7.820312 -3.28125 8.78125 -3.28125 C 9.738281 -3.28125 10.4375 -3.597656 10.875 -4.234375 C 10.914062 -4.285156 10.9375 -4.335938 10.9375 -4.390625 C 10.9375 -4.554688 10.710938 -4.679688 10.265625 -4.765625 C 9.828125 -4.847656 9.171875 -4.910156 8.296875 -4.953125 C 7.191406 -5.003906 6.03125 -5.125 4.8125 -5.3125 C 2.09375 -5.726562 0.734375 -6.816406 0.734375 -8.578125 C 0.734375 -8.734375 0.742188 -8.894531 0.765625 -9.0625 C 0.960938 -9.9375 1.347656 -10.710938 1.921875 -11.390625 C 2.503906 -12.066406 3.34375 -12.597656 4.4375 -12.984375 C 5.539062 -13.378906 6.988281 -13.578125 8.78125 -13.578125 C 10.582031 -13.578125 12.03125 -13.378906 13.125 -12.984375 C 14.226562 -12.597656 15.066406 -12.066406 15.640625 -11.390625 C 16.222656 -10.710938 16.613281 -9.9375 16.8125 -9.0625 L 10.875 -9.0625 C 10.4375 -9.6875 9.738281 -10 8.78125 -10 C 7.820312 -10 7.125 -9.6875 6.6875 -9.0625 C 6.65625 -9.007812 6.640625 -8.960938 6.640625 -8.921875 C 6.640625 -8.765625 6.851562 -8.648438 7.28125 -8.578125 C 7.707031 -8.515625 8.332031 -8.457031 9.15625 -8.40625 C 9.976562 -8.351562 10.851562 -8.269531 11.78125 -8.15625 C 12.71875 -8.050781 13.59375 -7.859375 14.40625 -7.578125 C 15.21875 -7.304688 15.851562 -6.90625 16.3125 -6.375 C 16.675781 -5.957031 16.859375 -5.429688 16.859375 -4.796875 C 16.859375 -4.617188 16.84375 -4.429688 16.8125 -4.234375 C 16.613281 -3.347656 16.222656 -2.566406 15.640625 -1.890625 C 15.066406 -1.210938 14.226562 -0.679688 13.125 -0.296875 C 12.03125 0.0859375 10.582031 0.28125 8.78125 0.28125 Z M 8.78125 0.28125 "/></g></g></g><g fill="#000000" fill-opacity="1"><g transform="translate(67.607841, 16.24476)"><g><path d="M 10.0625 0.28125 C 6.769531 0.28125 4.347656 -0.394531 2.796875 -1.75 C 1.421875 -2.945312 0.734375 -4.578125 0.734375 -6.640625 C 0.734375 -8.710938 1.421875 -10.347656 2.796875 -11.546875 C 4.347656 -12.898438 6.769531 -13.578125 10.0625 -13.578125 C 13.34375 -13.578125 15.757812 -12.898438 17.3125 -11.546875 C 18.6875 -10.347656 19.375 -8.710938 19.375 -6.640625 C 19.375 -4.578125 18.6875 -2.945312 17.3125 -1.75 C 15.757812 -0.394531 13.34375 0.28125 10.0625 0.28125 Z M 10.0625 -3.28125 C 11.40625 -3.28125 12.394531 -3.664062 13.03125 -4.4375 C 13.53125 -5.0625 13.78125 -5.796875 13.78125 -6.640625 C 13.78125 -7.492188 13.53125 -8.226562 13.03125 -8.84375 C 12.394531 -9.625 11.40625 -10.015625 10.0625 -10.015625 C 8.707031 -10.015625 7.710938 -9.625 7.078125 -8.84375 C 6.578125 -8.226562 6.328125 -7.492188 6.328125 -6.640625 C 6.328125 -5.796875 6.578125 -5.0625 7.078125 -4.4375 C 7.710938 -3.664062 8.707031 -3.28125 10.0625 -3.28125 Z M 10.0625 -3.28125 "/></g></g></g><g fill="#000000" fill-opacity="1"><g transform="translate(87.72352, 16.24476)"><g><path d="M 21.21875 0 L 14.578125 0 L 7.0625 -9 L 7.0625 0 L 1.484375 0 L 1.484375 -13.296875 L 8.125 -13.296875 L 15.640625 -4.34375 L 15.640625 -13.296875 L 21.21875 -13.296875 Z M 21.21875 0 "/></g></g></g></g></g></svg>