<svg xmlns="http://www.w3.org/2000/svg" xmlns:xlink="http://www.w3.org/1999/xlink" width="48" zoomAndPan="magnify" viewBox="0 0 36 36.000001" height="48" preserveAspectRatio="xMidYMid meet" version="1.0"><defs><g/><clipPath id="58a5c36ed2"><path d="M 0.488281 0 L 35.511719 0 L 35.511719 35.027344 L 0.488281 35.027344 Z M 0.488281 0 " clip-rule="nonzero"/></clipPath><clipPath id="9958f46a74"><path d="M 18 0 C 8.328125 0 0.488281 7.839844 0.488281 17.511719 C 0.488281 27.1875 8.328125 35.027344 18 35.027344 C 27.671875 35.027344 35.511719 27.1875 35.511719 17.511719 C 35.511719 7.839844 27.671875 0 18 0 Z M 18 0 " clip-rule="nonzero"/></clipPath><clipPath id="12dfa3bd44"><path d="M 0.488281 0 L 35.511719 0 L 35.511719 35.027344 L 0.488281 35.027344 Z M 0.488281 0 " clip-rule="nonzero"/></clipPath><clipPath id="02dc8307d0"><path d="M 18 0 C 8.328125 0 0.488281 7.839844 0.488281 17.511719 C 0.488281 27.1875 8.328125 35.027344 18 35.027344 C 27.671875 35.027344 35.511719 27.1875 35.511719 17.511719 C 35.511719 7.839844 27.671875 0 18 0 Z M 18 0 " clip-rule="nonzero"/></clipPath><clipPath id="d473becb1e"><rect x="0" width="36" y="0" height="36"/></clipPath><clipPath id="38ac72999f"><rect x="0" width="22" y="0" height="27"/></clipPath></defs><g clip-path="url(#58a5c36ed2)"><g clip-path="url(#9958f46a74)"><g transform="matrix(1, 0, 0, 1, 0.000000000000000056, 0.000000000000010582)"><g clip-path="url(#d473becb1e)"><g clip-path="url(#12dfa3bd44)"><g clip-path="url(#02dc8307d0)"><path fill="#fffd25" d="M 0.488281 0 L 35.511719 0 L 35.511719 35.027344 L 0.488281 35.027344 Z M 0.488281 0 " fill-opacity="1" fill-rule="nonzero"/></g></g></g></g></g></g><g transform="matrix(1, 0, 0, 1, 7, 4)"><g clip-path="url(#38ac72999f)"><g fill="#000000" fill-opacity="1"><g transform="translate(0.643241, 20.941811)"><g><path d="M 15.609375 0 L 15.59375 -9.109375 L 11.125 -1.609375 L 9.546875 -1.609375 L 5.09375 -8.90625 L 5.09375 0 L 1.796875 0 L 1.796875 -15.1875 L 4.703125 -15.1875 L 10.390625 -5.75 L 15.984375 -15.1875 L 18.875 -15.1875 L 18.90625 0 Z M 15.609375 0 "/></g></g></g></g></g></svg>